<svg width="70" height="70" viewBox="0 0 70 70" fill="none" xmlns="http://www.w3.org/2000/svg">
<g clip-path="url(#clip0_143_68)">
<path d="M35 70C54.33 70 70 54.33 70 35C70 15.67 54.33 0 35 0C15.67 0 0 15.67 0 35C0 54.33 15.67 70 35 70Z" fill="white"/>
<path fill-rule="evenodd" clip-rule="evenodd" d="M23.2685 19.5465C23.4148 19.5264 23.5413 19.6459 23.5413 19.7936C23.5413 22.555 25.7799 24.7936 28.5413 24.7936L37.708 24.7936C40.4694 24.7936 42.708 22.555 42.708 19.7936C42.708 19.6459 42.8345 19.5264 42.9809 19.5465C44.481 19.7535 45.7272 20.1956 46.7112 21.1806C47.7142 22.1845 48.1455 23.4484 48.3472 24.9497C48.5414 26.3958 48.5414 28.2346 48.5413 30.5162V30.5162V37.151C48.5413 37.464 48.5413 37.6204 48.4668 37.7412C48.3922 37.8619 48.2439 37.9363 47.9472 38.0849C46.5784 38.7709 45.3542 39.6976 44.3328 40.5933C42.9575 41.7995 41.702 43.1716 40.6637 44.4162C40.5729 44.525 40.5276 44.5794 40.484 44.613C40.3557 44.7118 40.2197 44.7408 40.0622 44.703C40.0087 44.6902 39.9378 44.6555 39.796 44.5862C39.4242 44.4044 39.0648 44.2696 38.7257 44.1727C38.5183 44.1114 38.0066 43.9603 37.2946 43.9603C34.9934 43.9603 33.1279 45.8258 33.1279 48.127C33.1279 49.9948 34.3556 51.5738 36.0491 52.1038L36.0567 52.1062C36.1136 52.1239 36.1467 52.1342 36.1868 52.1814C36.3612 52.3864 36.2158 52.7103 35.9467 52.7103L28.8664 52.7103H28.8663C26.5872 52.7103 24.7499 52.7103 23.3049 52.5159C21.8046 52.3139 20.5413 51.882 19.5382 50.8779C18.5352 49.874 18.1038 48.6101 17.9022 47.1088C17.708 45.6627 17.708 43.8239 17.708 41.5424V41.5424V30.5161V30.5161C17.708 28.2346 17.708 26.3958 17.9022 24.9497C18.1038 23.4484 18.5352 22.1845 19.5382 21.1806C20.5222 20.1956 21.7683 19.7535 23.2685 19.5465ZM26.4613 31.875C25.7709 31.875 25.2113 32.4347 25.2113 33.125C25.2113 33.8154 25.7709 34.375 26.4613 34.375L39.7946 34.375C40.485 34.375 41.0446 33.8154 41.0446 33.125C41.0446 32.4347 40.485 31.875 39.7946 31.875L26.4613 31.875ZM26.4613 40.2084C25.7709 40.2084 25.2113 40.768 25.2113 41.4584C25.2113 42.1487 25.7709 42.7084 26.4613 42.7084H33.1279C33.8183 42.7084 34.3779 42.1487 34.3779 41.4584C34.3779 40.768 33.8183 40.2084 33.1279 40.2084H26.4613Z" fill="#FF6F61"/>
<path d="M52.196 40.9023C52.5033 41.77 52.0491 42.7225 51.1814 43.0298C50.292 43.3448 49.2646 44.0229 48.1761 44.9774C47.1049 45.9168 46.063 47.045 45.1401 48.1514C44.2204 49.2539 43.4391 50.3101 42.8873 51.0918C42.6121 51.4817 42.1784 52.1323 42.0318 52.3525C41.7096 52.8593 41.1395 53.1539 40.5398 53.1232C39.9399 53.0925 39.4029 52.7414 39.1343 52.2041C38.3998 50.7352 37.7409 50.1502 37.4088 49.9288C37.2683 49.8351 37.1734 49.7976 37.1356 49.7849C36.2883 49.7062 35.625 48.9933 35.625 48.1254C35.625 47.2049 36.3712 46.4587 37.2917 46.4587C37.6823 46.4587 37.864 46.5258 38.036 46.575C38.3824 46.6739 38.8005 46.8504 39.2578 47.1553C39.715 47.4601 40.1944 47.8814 40.6757 48.4578C41.201 47.7399 41.8483 46.8937 42.5805 46.0161C43.5693 44.8308 44.7333 43.5632 45.9783 42.4713C47.206 41.3946 48.605 40.406 50.0686 39.8877C50.9363 39.5804 51.8887 40.0347 52.196 40.9023Z" fill="#FF6F61"/>
<path d="M25.625 19.7917C25.625 18.1808 26.9308 16.875 28.5417 16.875H37.7083C39.3192 16.875 40.625 18.1808 40.625 19.7917C40.625 21.4025 39.3192 22.7083 37.7083 22.7083H28.5417C26.9308 22.7083 25.625 21.4025 25.625 19.7917Z" fill="#FF6F61"/>
</g>
<defs>
<clipPath id="clip0_143_68">
<rect width="70" height="70" fill="white"/>
</clipPath>
</defs>
</svg>
