<svg width="70" height="70" viewBox="0 0 70 70" fill="none" xmlns="http://www.w3.org/2000/svg">
<g clip-path="url(#clip0_143_62)">
<path d="M35 70C54.33 70 70 54.33 70 35C70 15.67 54.33 0 35 0C15.67 0 0 15.67 0 35C0 54.33 15.67 70 35 70Z" fill="white"/>
<path fill-rule="evenodd" clip-rule="evenodd" d="M36.7418 18.7498C39.8027 18.7497 42.202 18.7497 44.1056 18.956C46.0481 19.1664 47.6221 19.6036 48.966 20.58C49.7795 21.1711 50.495 21.8866 51.0861 22.7001C52.0625 24.044 52.4997 25.618 52.7101 27.5605C52.9164 29.4641 52.9164 31.8634 52.9163 34.9242V35.0752C52.9164 38.136 52.9164 40.5354 52.7101 42.439C52.4997 44.3815 52.0625 45.9555 51.0861 47.2994C50.495 48.1129 49.7795 48.8284 48.966 49.4195C47.6221 50.3959 46.0481 50.8331 44.1056 51.0435C42.202 51.2498 39.8027 51.2498 36.7419 51.2498H33.2576C30.1968 51.2498 27.7973 51.2498 25.8938 51.0435C23.9512 50.8331 22.3773 50.3959 21.0334 49.4195C20.2198 48.8284 19.5044 48.1129 18.9133 47.2994C17.9369 45.9555 17.4997 44.3815 17.2892 42.439C17.083 40.5354 17.083 38.1361 17.083 35.0752V34.9243C17.083 31.8634 17.083 29.4641 17.2892 27.5605C17.4997 25.618 17.9369 24.044 18.9133 22.7001C19.5044 21.8866 20.2198 21.1711 21.0334 20.58C22.3773 19.6036 23.9512 19.1664 25.8938 18.956C27.7974 18.7497 30.1967 18.7497 33.2576 18.7498H36.7418ZM36.6663 29.9998C36.6663 29.0793 37.4125 28.3331 38.333 28.3331H44.9997C45.9201 28.3331 46.6663 29.0793 46.6663 29.9998C46.6663 30.9202 45.9201 31.6664 44.9997 31.6664H38.333C37.4125 31.6664 36.6663 30.9202 36.6663 29.9998ZM36.6663 35.8331C36.6663 34.9126 37.4125 34.1664 38.333 34.1664H43.333C44.2535 34.1664 44.9997 34.9126 44.9997 35.8331C44.9997 36.7536 44.2535 37.4998 43.333 37.4998H38.333C37.4125 37.4998 36.6663 36.7536 36.6663 35.8331ZM29.1663 25.4162C26.635 25.4162 24.583 27.4683 24.583 29.9996C24.583 32.5309 26.635 34.5829 29.1663 34.5829C31.6976 34.5829 33.7497 32.5309 33.7497 29.9996C33.7497 27.4683 31.6976 25.4162 29.1663 25.4162ZM22.2012 41.1362C21.9085 41.7615 22.1781 42.5056 22.8033 42.7983C22.975 42.8787 23.1557 42.9167 23.3336 42.9165H34.9997C35.1775 42.9167 35.3582 42.8787 35.5299 42.7983C36.1552 42.5056 36.4248 41.7615 36.1321 41.1362C34.7942 38.2784 31.839 37.0434 29.0985 37.0838C26.3732 37.1241 23.4676 38.4312 22.2012 41.1362Z" fill="#FF6F61"/>
</g>
<defs>
<clipPath id="clip0_143_62">
<rect width="70" height="70" fill="white"/>
</clipPath>
</defs>
</svg>
