<svg width="70" height="70" viewBox="0 0 70 70" fill="none" xmlns="http://www.w3.org/2000/svg">
<g clip-path="url(#clip0_143_71)">
<path d="M35 70C54.33 70 70 54.33 70 35C70 15.67 54.33 0 35 0C15.67 0 0 15.67 0 35C0 54.33 15.67 70 35 70Z" fill="white"/>
<path d="M26.8257 36.6561C32.0356 35.2807 37.971 35.2823 43.1749 36.6561C45.7726 37.3419 47.6087 38.2207 49.2774 39.3003C52.0511 41.0949 53.1774 44.2855 52.8664 47.2581C52.7751 48.1305 52.3534 48.9019 51.6266 49.3673C50.9125 49.8246 50.0566 49.8894 49.2655 49.6704L46.8884 49.0125C46.0245 48.7734 45.2802 48.5674 44.6872 48.3308C44.0526 48.0776 43.4747 47.7465 43.0126 47.1916C42.5483 46.6342 42.3312 46.0074 42.2058 45.3399C42.0896 44.7213 42.0359 43.9651 41.9742 43.0954L41.7826 40.3989C41.7568 40.0348 41.7438 39.8527 41.63 39.7253C41.5162 39.598 41.3407 39.5654 40.9897 39.5004C37.0908 38.7781 32.9128 38.7775 29.0109 39.5004C28.6598 39.5654 28.4843 39.5979 28.3705 39.7253C28.2567 39.8527 28.2438 40.0347 28.2179 40.3989L28.0264 43.0954C27.9646 43.9651 27.911 44.7213 27.7947 45.3399C27.6693 46.0074 27.4522 46.6342 26.988 47.1916C26.5259 47.7465 25.9479 48.0776 25.3133 48.3308C24.7204 48.5674 23.9761 48.7734 23.1122 49.0124L20.735 49.6704C19.9439 49.8894 19.088 49.8246 18.374 49.3673C17.6471 48.9019 17.2255 48.1305 17.1342 47.2581C16.8232 44.2855 17.9494 41.0949 20.7231 39.3003C22.3918 38.2207 24.2279 37.3419 26.8257 36.6561Z" fill="#FF6F61"/>
<path fill-rule="evenodd" clip-rule="evenodd" d="M35.0009 20.2085C35.9214 20.2085 36.6676 20.9547 36.6676 21.8752V26.6371C36.6676 27.5575 35.9214 28.3037 35.0009 28.3037C34.0804 28.3037 33.3342 27.5575 33.3342 26.6371V21.8752C33.3342 20.9547 34.0804 20.2085 35.0009 20.2085ZM23.5688 26.975C24.0396 26.1841 25.0625 25.9246 25.8534 26.3954L29.8532 28.7764C30.6441 29.2472 30.9037 30.2701 30.4328 31.061C29.962 31.852 28.9391 32.1115 28.1482 31.6406L24.1484 29.2597C23.3575 28.7889 23.0979 27.766 23.5688 26.975ZM46.433 26.975C46.9039 27.766 46.6444 28.7889 45.8534 29.2597L41.8536 31.6406C41.0627 32.1115 40.0398 31.852 39.569 31.061C39.0982 30.2701 39.3577 29.2472 40.1486 28.7764L44.1484 26.3954C44.9393 25.9246 45.9622 26.1841 46.433 26.975Z" fill="#FF6F61"/>
</g>
<defs>
<clipPath id="clip0_143_71">
<rect width="70" height="70" fill="white"/>
</clipPath>
</defs>
</svg>
