<svg width="40" height="40" viewBox="0 0 40 40" fill="none" xmlns="http://www.w3.org/2000/svg">
<path fill-rule="evenodd" clip-rule="evenodd" d="M8.47357 4.75504C8.6199 4.73486 8.74642 4.85437 8.74642 5.00208C8.74642 7.76351 10.985 10.0021 13.7464 10.0021L22.9131 10.0021C25.6745 10.0021 27.9131 7.76351 27.9131 5.00208C27.9131 4.85437 28.0396 4.73486 28.1859 4.75504C29.6861 4.96195 30.9322 5.40413 31.9163 6.38907C32.9192 7.39299 33.3506 8.65691 33.5522 10.1581C33.7465 11.6043 33.7465 13.4431 33.7464 15.7246V15.7247V15.7247V19.434C33.7464 19.7847 33.7464 19.96 33.6433 20.0497C33.5402 20.1394 33.3532 20.1132 32.9791 20.0609C31.6129 19.8696 30.198 20.13 28.9645 20.8421C28.2332 21.2643 27.6313 21.8697 27.2383 22.265L27.2383 22.265L27.164 22.3396L21.5525 27.9513C20.3273 29.1765 19.8132 30.6043 19.5452 31.654C19.5063 31.8063 19.4711 31.9572 19.4391 32.1041C19.3659 32.4393 19.3294 32.6069 19.223 32.6739C19.1166 32.7409 18.9337 32.6978 18.568 32.6114C18.2595 32.5386 17.9378 32.5001 17.6071 32.5001H15.9404C13.6392 32.5001 11.7738 34.3656 11.7738 36.6668C11.7738 36.8147 11.7815 36.9609 11.7965 37.1048C11.8388 37.5093 11.8599 37.7115 11.768 37.8111C11.6761 37.9108 11.4966 37.9067 11.1376 37.8984C10.1473 37.8756 9.27385 37.8271 8.51002 37.7243C7.00963 37.5224 5.74641 37.0905 4.74326 36.0864C3.74027 35.0825 3.30892 33.8185 3.10728 32.3173C2.91303 30.8712 2.91306 29.0324 2.91309 26.7509V26.7509L2.91309 15.7246V15.7246C2.91305 13.4431 2.91303 11.6043 3.10727 10.1581C3.30892 8.65691 3.74027 7.39299 4.74326 6.38907C5.72729 5.40413 6.97339 4.96195 8.47357 4.75504ZM10.4163 18.3334C10.4163 17.6431 10.976 17.0834 11.6663 17.0834L24.9997 17.0834C25.69 17.0834 26.2497 17.6431 26.2497 18.3334C26.2497 19.0238 25.69 19.5834 24.9997 19.5834L11.6663 19.5834C10.976 19.5834 10.4163 19.0238 10.4163 18.3334ZM10.4163 26.6668C10.4163 25.9764 10.976 25.4168 11.6663 25.4168H18.333C19.0234 25.4168 19.583 25.9764 19.583 26.6668C19.583 27.3571 19.0234 27.9168 18.333 27.9168H11.6663C10.976 27.9168 10.4163 27.3571 10.4163 26.6668Z" fill="#FF6F61"/>
<path d="M10.8301 5.00004C10.8301 3.38921 12.1359 2.08337 13.7467 2.08337H22.9134C24.5242 2.08337 25.8301 3.38921 25.8301 5.00004C25.8301 6.61087 24.5242 7.91671 22.9134 7.91671H13.7467C12.1359 7.91671 10.8301 6.61087 10.8301 5.00004Z" fill="#FF6F61"/>
<path d="M30.2143 23.007C31.3853 22.331 32.828 22.331 33.999 23.007C34.435 23.2588 34.925 23.7498 35.3802 24.2059C35.8364 24.6611 36.3274 25.1512 36.5791 25.5872C37.2552 26.7581 37.2552 28.2008 36.5791 29.3718C36.3274 29.8078 35.9361 30.1983 35.4799 30.6535L29.8672 36.2661C29.0916 37.0416 28.1551 37.404 27.3138 37.6188C26.8937 37.726 26.4717 37.8025 26.0889 37.8686C25.5789 37.9778 23.9162 38.2995 23.4941 38.3264C23.0292 38.3559 22.355 38.3104 21.8154 37.7707C21.2758 37.2311 21.2302 36.557 21.2598 36.0921C21.2866 35.67 21.6083 34.0072 21.7175 33.4972C21.7837 33.1144 21.8601 32.6924 21.9673 32.2723C22.1821 31.431 22.5445 30.4945 23.32 29.719L28.9327 24.1062C29.3879 23.65 29.7784 23.2588 30.2143 23.007Z" fill="#FF6F61"/>
<path fill-rule="evenodd" clip-rule="evenodd" d="M14.2734 36.6667C14.2734 35.7462 15.0196 35 15.9401 35H17.6068C18.5272 35 19.2734 35.7462 19.2734 36.6667C19.2734 37.5871 18.5272 38.3333 17.6068 38.3333H15.9401C15.0196 38.3333 14.2734 37.5871 14.2734 36.6667Z" fill="#FF6F61"/>
</svg>
