<svg width="40" height="40" viewBox="0 0 40 40" fill="none" xmlns="http://www.w3.org/2000/svg">
<path fill-rule="evenodd" clip-rule="evenodd" d="M20 10.8334C20.9205 10.8334 21.6667 11.5796 21.6667 12.5V12.9638C23.0039 13.3853 24.1381 14.3103 24.6809 15.6061C25.0365 16.4551 24.6366 17.4316 23.7876 17.7873C22.9386 18.1429 21.9621 17.743 21.6064 16.894C21.4498 16.5201 20.8939 16.0417 20 16.0417C18.8029 16.0417 18.3333 16.8089 18.3333 17.1875C18.3333 17.5662 18.8029 18.3334 20 18.3334C22.4848 18.3334 25 20.0846 25 22.8125C25 24.9214 23.4969 26.4465 21.6667 27.0302V27.5C21.6667 28.4205 20.9205 29.1667 20 29.1667C19.0795 29.1667 18.3333 28.4205 18.3333 27.5V27.0363C16.9961 26.6148 15.8619 25.6898 15.3191 24.394C14.9635 23.545 15.3634 22.5684 16.2124 22.2128C17.0614 21.8572 18.0379 22.2571 18.3936 23.1061C18.5502 23.48 19.1061 23.9584 20 23.9584C21.1971 23.9584 21.6667 23.1912 21.6667 22.8125C21.6667 22.4339 21.1971 21.6667 20 21.6667C17.5152 21.6667 15 19.9155 15 17.1875C15 15.0787 16.5031 13.5535 18.3333 12.9699V12.5C18.3333 11.5796 19.0795 10.8334 20 10.8334Z" fill="#FF6F61"/>
<path fill-rule="evenodd" clip-rule="evenodd" d="M19.9997 5.34095C11.9037 5.34095 5.34058 11.904 5.34058 20C5.34058 28.096 11.9037 34.6591 19.9997 34.6591C28.0957 34.6591 34.6588 28.096 34.6588 20C34.6588 18.9939 34.5576 18.013 34.3655 17.0665C34.1866 16.1849 34.7561 15.3252 35.6377 15.1462C36.5193 14.9673 37.379 15.5369 37.558 16.4184C37.7932 17.577 37.9163 18.775 37.9163 20C37.9163 29.8951 29.8948 37.9167 19.9997 37.9167C10.1046 37.9167 2.08301 29.8951 2.08301 20C2.08301 10.1049 10.1046 2.08337 19.9997 2.08337C21.2247 2.08337 22.4227 2.20656 23.5813 2.44175C24.4628 2.6207 25.0324 3.48042 24.8535 4.362C24.6745 5.24357 23.8148 5.81316 22.9332 5.63421C21.9867 5.44208 21.0058 5.34095 19.9997 5.34095Z" fill="#FF6F61"/>
<path d="M35.0866 2.56836C35.7332 1.92177 36.7816 1.92177 37.4281 2.56836C38.0747 3.21496 38.0747 4.26329 37.4281 4.90989L34.4275 7.9106L34.6172 8.10026C34.9573 8.44014 35.3171 8.79977 35.567 9.11766C35.7493 9.34944 36.4175 10.2044 36.0559 11.2687C35.6941 12.3339 34.6549 12.5654 34.3737 12.6274C33.9865 12.7126 33.4881 12.7591 33.0166 12.803L32.9357 12.8105C32.1932 12.8799 31.3303 12.9412 30.5607 12.9069C30.1764 12.8898 29.7552 12.8468 29.3537 12.7441C28.9815 12.649 28.4363 12.4562 27.9883 12.0083C27.5404 11.5604 27.3476 11.0151 27.2525 10.6429C27.1499 10.2415 27.1068 9.82016 27.0897 9.43587C27.0554 8.66631 27.1167 7.80342 27.1861 7.06088L27.1937 6.97993C27.2376 6.50844 27.284 6.01009 27.3693 5.62289C27.4312 5.34167 27.6627 4.3025 28.7279 3.94065C29.7922 3.57909 30.6472 4.24731 30.8789 4.42952C31.1968 4.67943 31.5564 5.03929 31.8963 5.37939L32.086 5.56907L35.0866 2.56836Z" fill="#FF6F61"/>
</svg>
