<svg width="70" height="70" viewBox="0 0 70 70" fill="none" xmlns="http://www.w3.org/2000/svg">
<g clip-path="url(#clip0_143_65)">
<path d="M35 70C54.33 70 70 54.33 70 35C70 15.67 54.33 0 35 0C15.67 0 0 15.67 0 35C0 54.33 15.67 70 35 70Z" fill="white"/>
<path fill-rule="evenodd" clip-rule="evenodd" d="M34.9984 17.0834C32.1963 17.0834 29.9182 18.0299 27.9313 19.0593C27.3309 19.3704 26.7731 19.678 26.2401 19.9721C24.936 20.6915 23.7802 21.329 22.511 21.734C21.7655 21.9719 21.1051 22.1826 20.6369 22.366C20.1962 22.5387 19.6725 22.7754 19.3009 23.1884C18.9671 23.5593 18.7956 23.9758 18.6819 24.3742C18.5786 24.7358 18.4904 25.2254 18.4058 25.6951C16.3425 37.1379 20.8542 47.9784 31.8716 52.1965C32.9546 52.6113 33.7521 52.9167 35.0039 52.9167C36.2557 52.9167 37.0532 52.6113 38.1361 52.1965C49.1532 47.9782 53.6603 37.1374 51.5965 25.695L51.5965 25.695C51.5118 25.2253 51.4236 24.7356 51.3203 24.3739C51.2066 23.9755 51.035 23.559 50.7012 23.188C50.3295 22.775 49.8058 22.5384 49.365 22.3658C48.8968 22.1824 48.2365 21.9718 47.4911 21.7341C46.2211 21.3291 45.0643 20.6914 43.7592 19.9719L43.7591 19.9718C43.2259 19.6778 42.668 19.3702 42.0674 19.0593C40.0795 18.03 37.8005 17.0834 34.9984 17.0834ZM36.6667 26.6667C36.6667 25.7462 35.9205 25 35 25C34.0795 25 33.3333 25.7462 33.3333 26.6667V30C33.3333 30.9205 34.0795 31.6667 35 31.6667C35.9205 31.6667 36.6667 30.9205 36.6667 30V26.6667Z" fill="#FF6F61"/>
</g>
<defs>
<clipPath id="clip0_143_65">
<rect width="70" height="70" fill="white"/>
</clipPath>
</defs>
</svg>
