<svg width="40" height="40" viewBox="0 0 40 40" fill="none" xmlns="http://www.w3.org/2000/svg">
<path fill-rule="evenodd" clip-rule="evenodd" d="M22.3709 4.375C25.4359 4.37498 27.8431 4.37497 29.7407 4.58933C31.6776 4.80813 33.2483 5.26437 34.554 6.29548C34.9448 6.60415 35.3072 6.94508 35.6367 7.31466C36.747 8.56002 37.2428 10.0695 37.479 11.9214C37.7084 13.7205 37.7084 15.9971 37.7083 18.8704V19.0463C37.7083 19.2913 37.7083 19.4138 37.6845 19.4882C37.6232 19.6795 37.5179 19.7768 37.3223 19.8225C37.2463 19.8404 37.0944 19.8282 36.7909 19.8038L36.7909 19.8038L36.7908 19.8038C36.2243 19.7584 35.6393 19.8288 35.0689 20.0308C33.175 20.7015 31.4974 21.9227 30.1649 23.0914C28.7895 24.2975 27.534 25.6697 26.4957 26.9143C26.405 27.0231 26.3596 27.0775 26.316 27.111C26.1877 27.2098 26.0517 27.2389 25.8942 27.2011C25.8407 27.1882 25.7698 27.1536 25.6281 27.0843L25.628 27.0843L25.628 27.0842C25.2742 26.9112 24.9316 26.7808 24.6071 26.6851C24.0044 26.4932 23.399 26.4609 23.151 26.4585L23.1266 26.4584C20.8254 26.4584 18.96 28.3239 18.96 30.625C18.96 30.9142 18.9894 31.1965 19.0454 31.469L19.0454 31.469C19.279 32.6054 19.3958 33.1736 19.2458 33.3576C19.0957 33.5417 18.6536 33.5417 17.7695 33.5417H17.2124H17.2124C14.1474 33.5417 11.7403 33.5417 9.84264 33.3273C7.9057 33.1085 6.33501 32.6523 5.02938 31.6212C4.63852 31.3125 4.27613 30.9716 3.94664 30.602C2.83635 29.3566 2.34054 27.8472 2.10438 25.9953C1.87496 24.1962 1.87498 21.9196 1.875 19.0462V19.0462V18.8704V18.8704C1.87498 15.9971 1.87496 13.7204 2.10438 11.9214C2.34054 10.0695 2.83635 8.56002 3.94664 7.31466C4.27613 6.94508 4.63852 6.60416 5.02938 6.29548C6.33501 5.26437 7.9057 4.80813 9.84264 4.58933C11.7403 4.37497 14.1474 4.37498 17.2124 4.375H17.2124H22.3709ZM10.625 18.9583C10.625 18.0379 9.88214 17.2917 8.96579 17.2917H8.95088C8.03452 17.2917 7.29167 18.0379 7.29167 18.9583C7.29167 19.8788 8.03452 20.625 8.95088 20.625H8.96579C9.88214 20.625 10.625 19.8788 10.625 18.9583ZM19.7917 13.5417C16.8001 13.5417 14.375 15.9668 14.375 18.9583C14.375 21.9499 16.8001 24.375 19.7917 24.375C22.7832 24.375 25.2083 21.9499 25.2083 18.9583C25.2083 15.9668 22.7832 13.5417 19.7917 13.5417Z" fill="#FF6F61"/>
<path d="M38.0291 23.4023C38.3364 24.27 37.8821 25.2225 37.0144 25.5298C36.125 25.8448 35.0976 26.5229 34.0091 27.4774C32.938 28.4168 31.8961 29.545 30.9731 30.6514C30.0534 31.7539 29.2721 32.8101 28.7204 33.5918C28.4451 33.9817 28.2284 34.3013 28.0818 34.5214L27.8648 34.8525C27.5426 35.3593 26.9725 35.6539 26.3728 35.6232C25.7729 35.5925 25.2359 35.2414 24.9673 34.7041C24.2328 33.2352 23.5739 32.6502 23.2418 32.4288C23.1013 32.3351 23.0064 32.2976 22.9686 32.2849C22.1213 32.2062 21.458 31.4933 21.458 30.6254C21.458 29.7049 22.2042 28.9587 23.1247 28.9587C23.262 28.9601 23.6031 28.9852 23.869 29.075C24.2155 29.1739 24.6335 29.3504 25.0908 29.6553C25.548 29.9601 26.0274 30.3814 26.5087 30.9578C27.034 30.2399 27.6813 29.3938 28.4135 28.5161C29.4023 27.3308 30.5663 26.0632 31.8113 24.9713C33.039 23.8946 34.4381 22.906 35.9016 22.3877C36.7693 22.0804 37.7218 22.5347 38.0291 23.4023Z" fill="#FF6F61"/>
</svg>
