<svg width="40" height="40" viewBox="0 0 40 40" fill="none" xmlns="http://www.w3.org/2000/svg">
<path fill-rule="evenodd" clip-rule="evenodd" d="M18.3712 3.71216C18.3712 2.81261 19.1004 2.08337 20 2.08337C29.8966 2.08337 37.9166 10.1061 37.9166 20C37.9166 29.894 29.8966 37.9167 20 37.9167C19.1004 37.9167 18.3712 37.1875 18.3712 36.2879C18.3712 35.3884 19.1004 34.6591 20 34.6591C28.0972 34.6591 34.6591 28.0952 34.6591 20C34.6591 11.9049 28.0972 5.34095 20 5.34095C19.1004 5.34095 18.3712 4.61172 18.3712 3.71216ZM15.9681 4.18497C16.2899 5.025 15.8698 5.96684 15.0297 6.28863C13.4875 6.87942 12.0441 7.68656 10.7736 8.6708C10.0625 9.22171 9.03941 9.09184 8.4885 8.38072C7.93758 7.6696 8.06745 6.64652 8.77857 6.09561C10.3092 4.90977 12.0338 3.94786 13.8644 3.24662C14.7045 2.92482 15.6463 3.34494 15.9681 4.18497ZM6.68373 10.3765C7.44763 10.8515 7.68181 11.8559 7.20679 12.6198C6.27277 14.1218 5.62643 15.7636 5.31324 17.4421C5.14824 18.3264 4.29762 18.9095 3.41333 18.7445C2.52904 18.5795 1.94593 17.7289 2.11093 16.8446C2.5016 14.7508 3.30201 12.7303 4.44045 10.8995C4.91548 10.1356 5.91983 9.90145 6.68373 10.3765ZM3.41333 21.2556C4.29762 21.0906 5.14824 21.6737 5.31324 22.558C5.62643 24.2365 6.27277 25.8783 7.20679 27.3803C7.68181 28.1442 7.44763 29.1486 6.68373 29.6236C5.91983 30.0986 4.91548 29.8645 4.44045 29.1005C3.30201 27.2698 2.5016 25.2493 2.11093 23.1555C1.94593 22.2712 2.52904 21.4206 3.41333 21.2556ZM8.4957 31.6101C9.05171 30.903 10.0757 30.7805 10.7828 31.3365C12.0431 32.3274 13.4807 33.1216 15.0273 33.7112C15.8678 34.0316 16.2895 34.9728 15.969 35.8133C15.6486 36.6539 14.7074 37.0755 13.8669 36.755C12.0407 36.0588 10.3102 35.1088 8.76934 33.8973C8.0622 33.3413 7.93969 32.3173 8.4957 31.6101Z" fill="#FF6F61"/>
<path d="M15.0288 16.25C15.0288 13.5016 17.2361 11.25 19.9878 11.25C22.7395 11.25 24.9468 13.5016 24.9468 16.25C24.9468 18.9984 22.7395 21.25 19.9878 21.25C17.2361 21.25 15.0288 18.9984 15.0288 16.25Z" fill="#FF6F61"/>
<path d="M12.4515 26.6136C16.3727 22.4894 23.558 22.2641 27.5646 26.6292C27.791 26.876 27.909 27.2033 27.8921 27.5377C27.8751 27.8722 27.7247 28.1859 27.4744 28.4085C25.488 30.1753 22.8682 31.25 20.0003 31.25C17.1327 31.25 14.513 30.1754 12.5267 28.4089C12.2736 28.1838 12.1227 27.8657 12.1085 27.5272C12.0943 27.1888 12.2181 26.8591 12.4515 26.6136Z" fill="#FF6F61"/>
</svg>
