<svg width="40" height="40" viewBox="0 0 40 40" fill="none" xmlns="http://www.w3.org/2000/svg">
<path fill-rule="evenodd" clip-rule="evenodd" d="M20.0858 2.91663H20.0857H19.9149H19.9149C16.4625 2.91661 13.7566 2.9166 11.6266 3.17533C9.45002 3.43972 7.70793 3.99014 6.27645 5.21274C5.89469 5.53879 5.53915 5.89433 5.2131 6.27608C3.9905 7.70756 3.44009 9.44965 3.17569 11.6263C2.91696 13.7562 2.91698 16.4621 2.91699 19.9145V19.9145V20.0854V20.0854C2.91698 23.5378 2.91696 26.2437 3.17569 28.3737C3.44009 30.5503 3.9905 32.2924 5.2131 33.7238C5.53915 34.1056 5.89469 34.4611 6.27645 34.7872C7.70793 36.0098 9.45002 36.5602 11.6266 36.8246C13.7566 37.0833 16.4625 37.0833 19.9149 37.0833H20.0857C23.5381 37.0833 26.2441 37.0833 28.374 36.8246C30.5506 36.5602 32.2927 36.0098 33.7242 34.7872C34.106 34.4611 34.4615 34.1056 34.7875 33.7238C36.0101 32.2924 36.5606 30.5503 36.825 28.3737C37.0837 26.2437 37.0837 23.5378 37.0837 20.0854V19.9145C37.0837 16.4621 37.0837 13.7562 36.825 11.6263C36.5606 9.44965 36.0101 7.70756 34.7875 6.27608C34.4615 5.89433 34.106 5.53879 33.7242 5.21274C32.2927 3.99014 30.5506 3.43972 28.374 3.17533C26.2441 2.9166 23.5382 2.91661 20.0858 2.91663ZM21.2503 11.6666C21.2503 10.9763 20.6907 10.4166 20.0003 10.4166C19.31 10.4166 18.7503 10.9763 18.7503 11.6666V12.3736C17.7249 12.5481 16.7838 12.9353 16.0203 13.4951C14.9556 14.2758 14.167 15.4576 14.167 16.8796C14.167 18.1305 14.6159 19.2866 15.7633 20.0547C16.8036 20.7511 18.254 21.0103 20.0003 21.0103C21.5973 21.0103 22.5469 21.25 23.0705 21.5894C23.4804 21.8551 23.7503 22.2566 23.7503 23.121C23.7503 23.8473 23.4522 24.2958 22.8952 24.6283C22.2623 25.0061 21.2684 25.2318 20.0003 25.2318C18.834 25.2318 17.8343 24.9118 17.1621 24.46C16.4821 24.003 16.2503 23.5059 16.2503 23.121C16.2503 22.4307 15.6907 21.871 15.0003 21.871C14.31 21.871 13.7503 22.4307 13.7503 23.121C13.7503 24.5923 14.6378 25.7756 15.7675 26.5349C16.6018 27.0957 17.6313 27.4778 18.7503 27.6416V28.3333C18.7503 29.0236 19.31 29.5833 20.0003 29.5833C20.6907 29.5833 21.2503 29.0236 21.2503 28.3333V27.6677C22.3114 27.5542 23.3293 27.2807 24.1766 26.7749C25.4292 26.0272 26.2503 24.7953 26.2503 23.121C26.2503 21.5849 25.687 20.3061 24.4302 19.4915C23.2871 18.7506 21.7367 18.5103 20.0003 18.5103C18.4134 18.5103 17.5721 18.2571 17.154 17.9773C16.8431 17.7691 16.667 17.4848 16.667 16.8796C16.667 16.4455 16.9044 15.9469 17.4986 15.5112C18.0921 15.0761 18.9725 14.7688 20.0003 14.7688C21.0282 14.7688 21.9086 15.0761 22.5021 15.5112C23.0963 15.9469 23.3337 16.4455 23.3337 16.8796C23.3337 17.57 23.8933 18.1296 24.5837 18.1296C25.274 18.1296 25.8337 17.57 25.8337 16.8796C25.8337 15.4576 25.045 14.2758 23.9804 13.4951C23.2169 12.9353 22.2757 12.5481 21.2503 12.3736V11.6666Z" fill="#FF6F61"/>
</svg>
