<svg width="40" height="40" viewBox="0 0 40 40" fill="none" xmlns="http://www.w3.org/2000/svg">
<path d="M12.4971 5.00004C12.4971 3.38921 13.8029 2.08337 15.4137 2.08337H24.5804C26.1912 2.08337 27.4971 3.38921 27.4971 5.00004C27.4971 6.61087 26.1912 7.91671 24.5804 7.91671H15.4137C13.8029 7.91671 12.4971 6.61087 12.4971 5.00004Z" fill="#FF6F61"/>
<path fill-rule="evenodd" clip-rule="evenodd" d="M10.1406 4.75492C10.2869 4.73473 10.4134 4.85424 10.4134 5.00196C10.4134 7.76339 12.652 10.002 15.4134 10.002L24.5801 10.002C27.3415 10.002 29.5801 7.76339 29.5801 5.00196C29.5801 4.85424 29.7066 4.73473 29.8529 4.75492C31.3531 4.96183 32.5992 5.40401 33.5832 6.38895C34.5862 7.39287 35.0176 8.65679 35.2192 10.158C35.4135 11.6041 35.4135 13.4429 35.4134 15.7244V15.7245V15.7245V15.7245V15.7246L35.4134 26.7506V26.7507V26.7507V26.7508V26.7508C35.4135 29.0323 35.4135 30.8711 35.2192 32.3172C35.0176 33.8184 34.5862 35.0824 33.5832 36.0863C32.5801 37.0904 31.3169 37.5223 29.8165 37.7242C28.3715 37.9187 26.5343 37.9187 24.2551 37.9186H24.255L15.7385 37.9186H15.7384C13.4592 37.9187 11.622 37.9187 10.177 37.7242C8.67662 37.5223 7.4134 37.0904 6.41025 36.0863C5.40727 35.0823 4.97592 33.8184 4.77427 32.3172C4.58002 30.8711 4.58005 29.0323 4.58008 26.7508V26.7508L4.58008 15.7245V15.7245C4.58005 13.443 4.58002 11.6041 4.77427 10.158C4.97591 8.65679 5.40727 7.39287 6.41025 6.38895C7.39428 5.40401 8.64039 4.96183 10.1406 4.75492ZM21.2533 18.3334C21.2533 17.6431 21.8129 17.0834 22.5033 17.0834L28.3366 17.0834C29.0269 17.0834 29.5866 17.6431 29.5866 18.3334C29.5866 19.0238 29.0269 19.5834 28.3366 19.5834L22.5033 19.5834C21.8129 19.5834 21.2533 19.0238 21.2533 18.3334ZM18.7539 17.8454C19.4046 17.6149 19.7453 16.9005 19.5149 16.2498C19.2844 15.599 18.57 15.2583 17.9193 15.4888C17.1157 15.7734 16.3698 16.3065 15.7385 16.8601C15.0943 17.4251 14.497 18.0763 13.9944 18.6789C13.7508 18.9708 13.5258 19.2558 13.3247 19.52C13.1777 19.3823 13.0303 19.2661 12.8841 19.1687C12.6193 18.9921 12.3708 18.8858 12.1566 18.8246L12.1513 18.823C12.0454 18.7928 11.8972 18.7504 11.6699 18.7504C10.9796 18.7504 10.4199 19.3101 10.4199 20.0004C10.4199 20.625 10.8779 21.1425 11.4764 21.2355C11.4823 21.2391 11.4894 21.2435 11.4974 21.2488C11.5902 21.3107 11.876 21.5411 12.2186 22.2261C12.42 22.6291 12.8227 22.8924 13.2727 22.9155C13.7225 22.9385 14.1503 22.7171 14.3919 22.337C14.4634 22.2296 14.6729 21.9155 14.8082 21.7239C15.0795 21.3395 15.4633 20.8207 15.9141 20.2803C16.3673 19.737 16.873 19.1903 17.3869 18.7397C17.9137 18.2777 18.381 17.9775 18.7539 17.8454ZM21.2533 28.3334C21.2533 27.6431 21.8129 27.0834 22.5033 27.0834L28.3366 27.0834C29.0269 27.0834 29.5866 27.6431 29.5866 28.3334C29.5866 29.0238 29.0269 29.5834 28.3366 29.5834L22.5033 29.5834C21.8129 29.5834 21.2533 29.0238 21.2533 28.3334ZM13.3366 26.6667C12.4161 26.6667 11.6699 27.4129 11.6699 28.3334C11.6699 29.2539 12.4161 30.0001 13.3366 30.0001H15.0033C15.9237 30.0001 16.6699 29.2539 16.6699 28.3334C16.6699 27.4129 15.9237 26.6667 15.0033 26.6667H13.3366Z" fill="#FF6F61"/>
</svg>
